<svg width="28" height="28" viewBox="0 0 64 64" fill="none" xmlns="http://www.w3.org/2000/svg">
<path d="M27.9947 48.0027L18.1147 38.1227L21.888 34.3494L28.0053 40.4667L42.12 26.352L45.8933 30.1254L27.9947 48.0027ZM56 16V50.6667C56 52.0812 55.4381 53.4378 54.4379 54.4379C53.4377 55.4381 52.0812 56 50.6667 56H13.3333C11.9188 56 10.5623 55.4381 9.5621 54.4379C8.5619 53.4378 8 52.0812 8 50.6667V16C8 14.5856 8.5619 13.229 9.5621 12.2288C10.5623 11.2286 11.9188 10.6667 13.3333 10.6667H16V5.33337H21.3333V10.6667H42.6667V5.33337H48V10.6667H50.6667C52.0812 10.6667 53.4377 11.2286 54.4379 12.2288C55.4381 13.229 56 14.5856 56 16ZM50.6667 21.3334H13.3333V50.6667H50.6667V21.3334Z" fill="#2563EB"/>
</svg>
