<svg width="24" height="24" viewBox="0 0 32 32" fill="none" xmlns="http://www.w3.org/2000/svg">
<path d="M27.2 11.2V15.36C25.5437 14.5139 23.6618 14.2143 21.8246 14.5043C19.9874 14.7943 18.2893 15.659 16.9741 16.9742C15.6589 18.2894 14.7943 19.9874 14.5043 21.8246C14.2143 23.6619 14.5139 25.5437 15.36 27.2H8.8C7.73914 27.2 6.72172 26.7786 5.97158 26.0285C5.22143 25.2783 4.8 24.2609 4.8 23.2V11.2H27.2ZM23.2 4.80005C24.2609 4.80005 25.2783 5.22148 26.0284 5.97162C26.7786 6.72177 27.2 7.73918 27.2 8.80005V9.60005H4.8V8.80005C4.8 7.73918 5.22143 6.72177 5.97158 5.97162C6.72172 5.22148 7.73914 4.80005 8.8 4.80005H23.2ZM30.4 23.2C30.4 25.1096 29.6414 26.941 28.2912 28.2912C26.9409 29.6415 25.1096 30.4 23.2 30.4C21.2904 30.4 19.4591 29.6415 18.1088 28.2912C16.7586 26.941 16 25.1096 16 23.2C16 21.2905 16.7586 19.4591 18.1088 18.1089C19.4591 16.7586 21.2904 16 23.2 16C25.1096 16 26.9409 16.7586 28.2912 18.1089C29.6414 19.4591 30.4 21.2905 30.4 23.2ZM24 20C24 19.7879 23.9157 19.5844 23.7657 19.4344C23.6157 19.2843 23.4122 19.2 23.2 19.2C22.9878 19.2 22.7843 19.2843 22.6343 19.4344C22.4843 19.5844 22.4 19.7879 22.4 20V22.4H20C19.7878 22.4 19.5843 22.4843 19.4343 22.6344C19.2843 22.7844 19.2 22.9879 19.2 23.2C19.2 23.4122 19.2843 23.6157 19.4343 23.7657C19.5843 23.9158 19.7878 24 20 24H22.4V26.4C22.4 26.6122 22.4843 26.8157 22.6343 26.9657C22.7843 27.1158 22.9878 27.2 23.2 27.2C23.4122 27.2 23.6157 27.1158 23.7657 26.9657C23.9157 26.8157 24 26.6122 24 26.4V24H26.4C26.6122 24 26.8157 23.9158 26.9657 23.7657C27.1157 23.6157 27.2 23.4122 27.2 23.2C27.2 22.9879 27.1157 22.7844 26.9657 22.6344C26.8157 22.4843 26.6122 22.4 26.4 22.4H24V20Z" fill="#2563EB"/>
</svg>
