<svg width="28" height="28" viewBox="0 0 28 28" fill="none" xmlns="http://www.w3.org/2000/svg">
<path fill-rule="evenodd" clip-rule="evenodd" d="M11.6013 3.79175H16.3987C18.543 3.79175 20.2417 3.79175 21.5705 3.97025C22.9378 4.15458 24.045 4.54191 24.9188 5.41458C25.7915 6.28842 26.1788 7.39558 26.3632 8.76292C26.4682 9.54808 26.5113 10.4616 26.5288 11.5197C26.5433 11.6085 26.5449 11.6989 26.5335 11.7881C26.5405 12.4476 26.5432 13.1632 26.5417 13.9348V14.0654C26.5417 16.2098 26.5417 17.9084 26.3632 19.2373C26.1788 20.6046 25.7915 21.7118 24.9188 22.5856C24.045 23.4583 22.9378 23.8456 21.5705 24.0299C20.2405 24.2084 18.543 24.2084 16.3987 24.2084H11.6013C9.457 24.2084 7.75833 24.2084 6.4295 24.0299C5.06217 23.8456 3.955 23.4583 3.08117 22.5856C2.2085 21.7118 1.82117 20.6046 1.63683 19.2373C1.45833 17.9073 1.45833 16.2098 1.45833 14.0654V13.9348C1.45678 13.1632 1.4595 12.4476 1.4665 11.7881C1.45473 11.6989 1.45591 11.6086 1.47 11.5197C1.48867 10.4616 1.53183 9.54808 1.63683 8.76292C1.82117 7.39558 2.2085 6.28842 3.08117 5.41458C3.955 4.54191 5.06217 4.15458 6.4295 3.97025C7.7595 3.79175 9.457 3.79175 11.6013 3.79175ZM3.21067 12.5417C3.20911 12.9944 3.20833 13.4805 3.20833 14.0001C3.20833 16.2249 3.21067 17.8058 3.37167 19.0051C3.52917 20.1776 3.8255 20.8543 4.319 21.3478C4.8125 21.8413 5.48917 22.1376 6.66283 22.2951C7.86217 22.4561 9.44183 22.4584 11.6667 22.4584H16.3333C18.5582 22.4584 20.139 22.4561 21.3383 22.2951C22.5108 22.1376 23.1875 21.8413 23.681 21.3478C24.1745 20.8543 24.4708 20.1776 24.6283 19.0039C24.7893 17.8046 24.7917 16.2249 24.7917 14.0001C24.7917 13.4805 24.7909 12.9944 24.7893 12.5417H3.21067ZM24.7613 10.7917H3.23867C3.262 10.1069 3.30167 9.51542 3.37167 8.99508C3.52917 7.82258 3.8255 7.14592 4.319 6.65242C4.8125 6.15892 5.48917 5.86258 6.66283 5.70508C7.86217 5.54408 9.44183 5.54175 11.6667 5.54175H16.3333C18.5582 5.54175 20.139 5.54408 21.3383 5.70508C22.5108 5.86258 23.1875 6.15892 23.681 6.65242C24.1745 7.14592 24.4708 7.82258 24.6283 8.99625C24.6983 9.51542 24.738 10.1069 24.7613 10.7917ZM6.125 18.6668C6.125 18.4347 6.21719 18.2121 6.38128 18.048C6.54538 17.8839 6.76794 17.7918 7 17.7918H11.6667C11.8987 17.7918 12.1213 17.8839 12.2854 18.048C12.4495 18.2121 12.5417 18.4347 12.5417 18.6668C12.5417 18.8988 12.4495 19.1214 12.2854 19.2855C12.1213 19.4496 11.8987 19.5418 11.6667 19.5418H7C6.76794 19.5418 6.54538 19.4496 6.38128 19.2855C6.21719 19.1214 6.125 18.8988 6.125 18.6668ZM13.7083 18.6668C13.7083 18.4347 13.8005 18.2121 13.9646 18.048C14.1287 17.8839 14.3513 17.7918 14.5833 17.7918H16.3333C16.5654 17.7918 16.788 17.8839 16.9521 18.048C17.1161 18.2121 17.2083 18.4347 17.2083 18.6668C17.2083 18.8988 17.1161 19.1214 16.9521 19.2855C16.788 19.4496 16.5654 19.5418 16.3333 19.5418H14.5833C14.3513 19.5418 14.1287 19.4496 13.9646 19.2855C13.8005 19.1214 13.7083 18.8988 13.7083 18.6668Z" fill="#2563EB"/>
</svg>
