<svg width="28" height="28" viewBox="0 0 28 28" fill="none" xmlns="http://www.w3.org/2000/svg">
<path d="M24.5 2.33334H3.49998C2.79998 2.33334 2.33331 2.80001 2.33331 3.50001V24.5C2.33331 25.2 2.79998 25.6667 3.49998 25.6667H24.5C25.2 25.6667 25.6666 25.2 25.6666 24.5V3.50001C25.6666 2.80001 25.2 2.33334 24.5 2.33334ZM20.65 10.85L12.7166 18.7833C12.25 19.25 11.55 19.25 11.0833 18.7833L7.34998 15.05C6.88331 14.5833 6.88331 13.8833 7.34998 13.4167C7.81665 12.95 8.51665 12.95 8.98331 13.4167L11.9 16.3333L19.0166 9.21668C19.4833 8.75001 20.1833 8.75001 20.65 9.21668C21.1166 9.68334 21.1166 10.3833 20.65 10.85Z" fill="#2563EB"/>
</svg>
