<svg width="64" height="64" viewBox="0 0 64 64" fill="none" xmlns="http://www.w3.org/2000/svg">
<path d="M26.0827 10.3733C27.5867 9.09331 28.3387 8.45331 29.1227 8.07731C30.0206 7.64792 31.0033 7.42505 31.9987 7.42505C32.994 7.42505 33.9767 7.64792 34.8747 8.07731C35.6613 8.45064 36.4133 9.09064 37.9147 10.3733C38.5147 10.8853 38.8133 11.1386 39.1333 11.352C39.8662 11.8431 40.6892 12.1839 41.5547 12.3546C41.9307 12.4293 42.3227 12.4613 43.1067 12.5253C45.0773 12.68 46.0613 12.76 46.8827 13.0506C47.8208 13.3817 48.6729 13.9185 49.3766 14.6217C50.0803 15.325 50.6177 16.1767 50.9493 17.1146C51.24 17.9386 51.3173 18.9226 51.4747 20.8906C51.536 21.6746 51.568 22.0666 51.6427 22.4453C51.8133 23.3093 52.1547 24.1333 52.6453 24.864C52.8587 25.184 53.1147 25.4826 53.624 26.0826C54.904 27.5866 55.5467 28.3386 55.9227 29.1226C56.3521 30.0206 56.5749 31.0033 56.5749 31.9986C56.5749 32.994 56.3521 33.9767 55.9227 34.8746C55.5493 35.6586 54.9067 36.4106 53.624 37.9146C53.2742 38.3014 52.9475 38.7083 52.6453 39.1333C52.1545 39.8653 51.8137 40.6874 51.6427 41.552C51.568 41.9306 51.536 42.3226 51.4747 43.1066C51.3173 45.0746 51.24 46.0613 50.9493 46.8826C50.6177 47.8205 50.0803 48.6723 49.3766 49.3755C48.6729 50.0788 47.8208 50.6156 46.8827 50.9466C46.0613 51.24 45.0773 51.3173 43.1067 51.472C42.3227 51.536 41.9333 51.568 41.5547 51.6426C40.6892 51.8134 39.8662 52.1542 39.1333 52.6453C38.7092 52.9475 38.3032 53.2743 37.9173 53.624C36.4133 54.904 35.6613 55.544 34.8773 55.92C33.9794 56.3494 32.9967 56.5722 32.0013 56.5722C31.006 56.5722 30.0233 56.3494 29.1253 55.92C28.3387 55.5466 27.5867 54.9066 26.0853 53.624C25.6986 53.2742 25.2917 52.9474 24.8667 52.6453C24.1339 52.1542 23.3108 51.8134 22.4453 51.6426C21.9318 51.5555 21.4136 51.4985 20.8933 51.472C18.9227 51.3173 17.9387 51.2373 17.1173 50.9466C16.1792 50.6156 15.3271 50.0788 14.6234 49.3755C13.9197 48.6723 13.3824 47.8205 13.0507 46.8826C12.76 46.0613 12.6827 45.0746 12.5253 43.1066C12.4998 42.5856 12.4437 42.0665 12.3573 41.552C12.1863 40.6874 11.8455 39.8653 11.3547 39.1333C11.1413 38.8133 10.8853 38.5146 10.376 37.9146C9.09601 36.4106 8.45334 35.6586 8.07734 34.8746C7.64795 33.9767 7.42508 32.994 7.42508 31.9986C7.42508 31.0033 7.64795 30.0206 8.07734 29.1226C8.45334 28.3386 9.09334 27.5866 10.376 26.0826C10.8853 25.4826 11.1413 25.184 11.3547 24.864C11.8455 24.132 12.1863 23.3099 12.3573 22.4453C12.432 22.0666 12.464 21.6746 12.5253 20.8906C12.6827 18.9226 12.76 17.9386 13.0507 17.1146C13.3826 16.1765 13.9204 15.3245 14.6246 14.6213C15.3287 13.918 16.1814 13.3814 17.12 13.0506C17.9413 12.76 18.9253 12.68 20.896 12.5253C21.68 12.4613 22.0693 12.4293 22.448 12.3546C23.3135 12.1839 24.1365 11.8431 24.8693 11.352C25.1893 11.1386 25.4853 10.8853 26.0827 10.3733Z" stroke="#2563EB" stroke-width="4"/>
<path d="M22.5822 33L27.9155 38.3333L41.2488 25" stroke="#2563EB" stroke-width="4" stroke-linecap="round" stroke-linejoin="round"/>
</svg>
