<svg width="28" height="28" viewBox="0 0 28 28" fill="none" xmlns="http://www.w3.org/2000/svg">
<path d="M2.33334 22.1667C2.33334 24.15 3.85001 25.6667 5.83334 25.6667H22.1667C24.15 25.6667 25.6667 24.15 25.6667 22.1667V12.8333H2.33334V22.1667ZM22.1667 4.66667H19.8333V3.5C19.8333 2.8 19.3667 2.33334 18.6667 2.33334C17.9667 2.33334 17.5 2.8 17.5 3.5V4.66667H10.5V3.5C10.5 2.8 10.0333 2.33334 9.33334 2.33334C8.63334 2.33334 8.16668 2.8 8.16668 3.5V4.66667H5.83334C3.85001 4.66667 2.33334 6.18334 2.33334 8.16667V10.5H25.6667V8.16667C25.6667 6.18334 24.15 4.66667 22.1667 4.66667Z" fill="#2563EB"/>
</svg>
