<svg xmlns="http://www.w3.org/2000/svg" viewBox="0 0 24 24">
  <path fill="#EA4335" d="M12 10.2v3.8h5.4c-.2 1.4-1.7 4.1-5.4 4.1-3.3 0-6-2.7-6-6s2.7-6 6-6c1.9 0 3.2.8 3.9 1.5l2.7-2.6C16.6 3.2 14.5 2.4 12 2.4 6.9 2.4 2.8 6.5 2.8 11.6S6.9 20.8 12 20.8c6.1 0 9.1-4.3 9.1-8.7 0-.6-.1-1-.1-1.4H12z"/>
  <path fill="#34A853" d="M3.1 7.4l3.5 2.6C7.3 8 9.5 6.3 12 6.3c1.9 0 3.2.8 3.9 1.5l2.7-2.6C16.6 3.2 14.5 2.4 12 2.4 8 2.4 4.6 4.7 3.1 7.4z"/>
  <path fill="#FBBC05" d="M12 21c2.5 0 4.7-.9 6.3-2.5l-3-2.5c-.8.5-1.8.8-3.3.8-2.6 0-4.9-1.7-5.7-4.1l-3.5 2.7C4.4 18.8 7.9 21 12 21z"/>
  <path fill="#4285F4" d="M21.1 12.1c0-.6-.1-1-.1-1.4H12V14h5.4c-.2 1.4-1.7 4.1-5.4 4.1-2.2 0-4.1-1.3-4.9-3.2l-3.5 2.7C5.1 19.9 8.3 22 12 22c6.1 0 9.1-4.3 9.1-9.9z"/>
</svg>
