<svg width="21" height="21" viewBox="0 0 21 21" fill="none" xmlns="http://www.w3.org/2000/svg">
<path d="M9.93598 7.55905L12.5984 10.2131V10.0787C12.5984 9.41044 12.3329 8.76956 11.8604 8.29703C11.3879 7.82451 10.747 7.55905 10.0788 7.55905H9.93598ZM6.3245 8.23095L7.62631 9.53277C7.58432 9.70914 7.55912 9.88552 7.55912 10.0787C7.55912 10.7469 7.82458 11.3878 8.29711 11.8603C8.76963 12.3329 9.41051 12.5983 10.0788 12.5983C10.2635 12.5983 10.4483 12.5731 10.6247 12.5311L11.9265 13.8329C11.3638 14.1101 10.7423 14.2781 10.0788 14.2781C8.96501 14.2781 7.89688 13.8356 7.10934 13.0481C6.3218 12.2606 5.87936 11.1924 5.87936 10.0787C5.87936 9.41518 6.04734 8.79367 6.3245 8.23095ZM1.67997 3.58642L3.59489 5.50135L3.97284 5.87929C2.58704 6.97113 1.49519 8.39893 0.840088 10.0787C2.29308 13.7658 5.87936 16.3778 10.0788 16.3778C11.3806 16.3778 12.6236 16.1258 13.7574 15.6723L14.1186 16.025L16.571 18.4775L17.6377 17.4108L2.74661 2.51978M10.0788 5.87929C11.1925 5.87929 12.2606 6.32173 13.0482 7.10927C13.8357 7.89681 14.2782 8.96494 14.2782 10.0787C14.2782 10.6162 14.169 11.1369 13.9758 11.6073L16.4366 14.0681C17.6965 13.0183 18.7043 11.6409 19.3174 10.0787C17.8644 6.39162 14.2782 3.77959 10.0788 3.77959C8.90293 3.77959 7.77749 3.98956 6.71924 4.36751L8.54178 6.17325C9.02051 5.98848 9.53284 5.87929 10.0788 5.87929Z" fill="#6B7280"/>
</svg>
