<svg width="28" height="28" viewBox="0 0 28 28" fill="none" xmlns="http://www.w3.org/2000/svg">
<path d="M14 4.37508C13.3812 4.37508 12.7877 4.62091 12.3501 5.0585C11.9125 5.49608 11.6667 6.08958 11.6667 6.70841C11.6667 7.32725 11.9125 7.92074 12.3501 8.35833C12.7877 8.79591 13.3812 9.04175 14 9.04175C14.6188 9.04175 15.2123 8.79591 15.6499 8.35833C16.0875 7.92074 16.3333 7.32725 16.3333 6.70841C16.3333 6.08958 16.0875 5.49608 15.6499 5.0585C15.2123 4.62091 14.6188 4.37508 14 4.37508ZM10.2083 6.70841C10.2083 5.7028 10.6078 4.73838 11.3189 4.0273C12.03 3.31623 12.9944 2.91675 14 2.91675C15.0056 2.91675 15.97 3.31623 16.6811 4.0273C17.3922 4.73838 17.7917 5.7028 17.7917 6.70841C17.7917 7.71403 17.3922 8.67845 16.6811 9.38953C15.97 10.1006 15.0056 10.5001 14 10.5001C12.9944 10.5001 12.03 10.1006 11.3189 9.38953C10.6078 8.67845 10.2083 7.71403 10.2083 6.70841ZM5.54166 6.70841C5.07753 6.70841 4.63241 6.89279 4.30422 7.22098C3.97604 7.54916 3.79166 7.99428 3.79166 8.45841C3.79166 8.92254 3.97604 9.36766 4.30422 9.69585C4.63241 10.024 5.07753 10.2084 5.54166 10.2084C6.00579 10.2084 6.45091 10.024 6.7791 9.69585C7.10729 9.36766 7.29166 8.92254 7.29166 8.45841C7.29166 7.99428 7.10729 7.54916 6.7791 7.22098C6.45091 6.89279 6.00579 6.70841 5.54166 6.70841ZM2.33333 8.45841C2.33333 7.60751 2.67135 6.79146 3.27303 6.18978C3.87471 5.5881 4.69076 5.25008 5.54166 5.25008C6.39256 5.25008 7.20862 5.5881 7.81029 6.18978C8.41197 6.79146 8.74999 7.60751 8.74999 8.45841C8.74999 9.30932 8.41197 10.1254 7.81029 10.727C7.20862 11.3287 6.39256 11.6667 5.54166 11.6667C4.69076 11.6667 3.87471 11.3287 3.27303 10.727C2.67135 10.1254 2.33333 9.30932 2.33333 8.45841ZM20.7083 8.45841C20.7083 7.99428 20.8927 7.54916 21.2209 7.22098C21.5491 6.89279 21.9942 6.70841 22.4583 6.70841C22.9225 6.70841 23.3676 6.89279 23.6958 7.22098C24.0239 7.54916 24.2083 7.99428 24.2083 8.45841C24.2083 8.92254 24.0239 9.36766 23.6958 9.69585C23.3676 10.024 22.9225 10.2084 22.4583 10.2084C21.9942 10.2084 21.5491 10.024 21.2209 9.69585C20.8927 9.36766 20.7083 8.92254 20.7083 8.45841ZM22.4583 5.25008C21.6074 5.25008 20.7914 5.5881 20.1897 6.18978C19.588 6.79146 19.25 7.60751 19.25 8.45841C19.25 9.30932 19.588 10.1254 20.1897 10.727C20.7914 11.3287 21.6074 11.6667 22.4583 11.6667C23.3092 11.6667 24.1253 11.3287 24.727 10.727C25.3286 10.1254 25.6667 9.30932 25.6667 8.45841C25.6667 7.60751 25.3286 6.79146 24.727 6.18978C24.1253 5.5881 23.3092 5.25008 22.4583 5.25008ZM8.74999 14.1459C8.74999 13.6431 8.94973 13.1609 9.30527 12.8054C9.66081 12.4498 10.143 12.2501 10.6458 12.2501H17.3542C17.857 12.2501 18.3392 12.4498 18.6947 12.8054C19.0502 13.1609 19.25 13.6431 19.25 14.1459V18.6667C19.25 20.0591 18.6969 21.3945 17.7123 22.3791C16.7277 23.3636 15.3924 23.9167 14 23.9167C12.6076 23.9167 11.2722 23.3636 10.2877 22.3791C9.30312 21.3945 8.74999 20.0591 8.74999 18.6667V14.1459ZM10.6458 13.7084C10.5298 13.7084 10.4185 13.7545 10.3365 13.8366C10.2544 13.9186 10.2083 14.0299 10.2083 14.1459V18.6667C10.2083 19.6724 10.6078 20.6368 11.3189 21.3479C12.03 22.0589 12.9944 22.4584 14 22.4584C15.0056 22.4584 15.97 22.0589 16.6811 21.3479C17.3922 20.6368 17.7917 19.6724 17.7917 18.6667V14.1459C17.7917 14.0299 17.7456 13.9186 17.6635 13.8366C17.5815 13.7545 17.4702 13.7084 17.3542 13.7084H10.6458ZM7.67199 13.4109C7.61327 13.6466 7.58372 13.8916 7.58333 14.1459V14.9439L4.11833 15.8726C4.00636 15.9027 3.9109 15.9759 3.85293 16.0764C3.79497 16.1768 3.77922 16.2961 3.80916 16.4081L4.67716 19.6479C4.9137 20.5312 5.46146 21.2992 6.21954 21.8105C6.97761 22.3219 7.89493 22.542 8.80249 22.4304C9.13488 22.8894 9.52659 23.3023 9.96741 23.6583C9.87913 23.6875 9.78969 23.7139 9.69908 23.7377C9.03312 23.9162 8.3385 23.9619 7.65491 23.872C6.97131 23.7821 6.31211 23.5584 5.71496 23.2137C5.11781 22.869 4.5944 22.4101 4.17462 21.8632C3.75484 21.3162 3.44691 20.6919 3.26841 20.0259L2.39983 16.7861C2.33544 16.5456 2.31905 16.2948 2.3516 16.0479C2.38414 15.8011 2.46499 15.5631 2.58952 15.3475C2.71406 15.1319 2.87983 14.943 3.07739 14.7914C3.27494 14.6399 3.50041 14.5288 3.74091 14.4644L7.67199 13.4109ZM18.032 23.6583C18.1207 23.6875 18.2103 23.7139 18.3009 23.7377C18.9669 23.9161 19.6615 23.9617 20.345 23.8717C21.0286 23.7817 21.6877 23.558 22.2848 23.2132C22.8819 22.8685 23.4053 22.4096 23.825 21.8626C24.2447 21.3156 24.5526 20.6913 24.731 20.0253L25.599 16.7855C25.729 16.2999 25.6609 15.7825 25.4095 15.3471C25.1581 14.9117 24.7441 14.594 24.2585 14.4638L20.328 13.4103C20.3867 13.6464 20.4163 13.8914 20.4167 14.1453V14.9445L23.8811 15.872C23.9366 15.8869 23.9887 15.9126 24.0344 15.9476C24.08 15.9827 24.1182 16.0264 24.147 16.0762C24.1757 16.1261 24.1943 16.1811 24.2017 16.2381C24.2091 16.2952 24.2052 16.3531 24.1902 16.4087L23.3222 19.6479C23.0857 20.5311 22.538 21.299 21.7801 21.8103C21.0221 22.3216 20.105 22.5418 19.1975 22.4304C18.8651 22.8894 18.4728 23.3023 18.032 23.6583Z" fill="#2563EB"/>
</svg>
