<svg width="28" height="28" viewBox="0 0 28 28" fill="none" xmlns="http://www.w3.org/2000/svg">
<path d="M14 16.3333V25.6667H4.66666C4.66666 23.1913 5.64999 20.8173 7.40033 19.067C9.15067 17.3167 11.5246 16.3333 14 16.3333ZM14 15.1667C10.1325 15.1667 7 12.0342 7 8.16666C7 4.29916 10.1325 1.16666 14 1.16666C17.8675 1.16666 21 4.29916 21 8.16666C21 12.0342 17.8675 15.1667 14 15.1667ZM25.0203 23.3707L26.775 25.1242L25.1242 26.775L23.3707 25.0203C22.3922 25.5972 21.237 25.7975 20.1215 25.5836C19.0059 25.3696 18.0067 24.7562 17.3111 23.8582C16.6156 22.9603 16.2714 21.8394 16.3431 20.7059C16.4147 19.5723 16.8974 18.5037 17.7006 17.7006C18.5038 16.8974 19.5723 16.4147 20.7059 16.343C21.8395 16.2714 22.9603 16.6156 23.8582 17.3111C24.7562 18.0067 25.3696 19.0059 25.5836 20.1214C25.7975 21.237 25.5972 22.3922 25.0203 23.3707ZM21 23.3333C21.6188 23.3333 22.2123 23.0875 22.6499 22.6499C23.0875 22.2123 23.3333 21.6188 23.3333 21C23.3333 20.3812 23.0875 19.7877 22.6499 19.3501C22.2123 18.9125 21.6188 18.6667 21 18.6667C20.3812 18.6667 19.7877 18.9125 19.3501 19.3501C18.9125 19.7877 18.6667 20.3812 18.6667 21C18.6667 21.6188 18.9125 22.2123 19.3501 22.6499C19.7877 23.0875 20.3812 23.3333 21 23.3333Z" fill="#2563EB"/>
</svg>
