<svg width="64" height="57" viewBox="0 0 64 57" fill="none" xmlns="http://www.w3.org/2000/svg">
<g clip-path="url(#clip0_69_339)">
<path d="M63.479 21.591L60.9645 19.0716C60.2701 18.3758 59.1445 18.3758 58.4501 19.0716L57.1934 20.3307L53.9823 17.1134C54.6078 14.741 54.0223 12.1147 52.1656 10.2544L47.1378 5.21684C40.1956 -1.73895 28.9389 -1.73895 21.9956 5.21684L32.0523 10.2544V12.3418C32.0523 14.2311 32.8012 16.0435 34.1356 17.3794L39.5956 22.8501C41.4523 24.7104 44.0734 25.2971 46.4412 24.6703L49.6523 27.8877L48.3956 29.1468C47.7012 29.8426 47.7012 30.9704 48.3956 31.6662L50.9101 34.1855C51.6045 34.8813 52.7301 34.8813 53.4245 34.1855L63.4812 24.1092C64.1734 23.4145 64.1734 22.2868 63.479 21.591ZM31.6212 19.8988C31.2101 19.4869 30.8612 19.0315 30.5267 18.5684L2.18228 45.0834C-0.65883 47.742 -0.735497 52.2296 2.01228 54.9838C4.76006 57.7381 9.24006 57.6613 11.8934 54.8135L38.3523 26.417C37.9123 26.0931 37.4745 25.7636 37.0812 25.3695L31.6212 19.8988Z" fill="#2563EB"/>
</g>
<defs>
<clipPath id="clip0_69_339">
<rect width="64" height="57" fill="white"/>
</clipPath>
</defs>
</svg>
