<svg width="64" height="69" viewBox="0 0 64 69" fill="none" xmlns="http://www.w3.org/2000/svg">
<path d="M28 4C25.7875 4 24 5.7875 24 8H12C9.7875 8 8 9.7875 8 12C8 14.2125 9.7875 16 12 16H24V24H21.6625C20.6 24 19.5875 24.425 18.8375 25.175L16 28H4C1.7875 28 0 29.7875 0 32V40C0 42.2125 1.7875 44 4 44H16.5125C19.0375 47.625 23.25 50 28 50C32.75 50 36.9625 47.625 39.4875 44H44C46.2125 44 48 45.7875 48 48C48 50.2125 49.7875 52 52 52H60C62.2125 52 64 50.2125 64 48C64 36.95 55.05 28 44 28H40L37.175 25.175C36.425 24.425 35.4125 24 34.35 24H32.0125V16H44.0125C46.225 16 48.0125 14.2125 48.0125 12C48.0125 9.7875 46.225 8 44.0125 8H32.0125C32.0125 5.7875 30.225 4 28.0125 4H28ZM54.6 56.925L52.325 62.225C52.1 62.7375 51.9875 63.3 51.9875 63.8625V64.0125C51.9875 66.225 53.775 68.0125 55.9875 68.0125C58.2 68.0125 59.9875 66.225 59.9875 64.0125V63.8625C59.9875 63.3 59.875 62.75 59.65 62.225L57.375 56.925C57.1375 56.3625 56.5875 56 55.975 56C55.3625 56 54.825 56.3625 54.575 56.925H54.6Z" fill="#2563EB"/>
</svg>
