<svg width="64" height="64" viewBox="0 0 64 64" fill="none" xmlns="http://www.w3.org/2000/svg">
<mask id="mask0_69_378" style="mask-type:alpha" maskUnits="userSpaceOnUse" x="0" y="0" width="64" height="64">
<rect width="64" height="64" fill="#D9D9D9"/>
</mask>
<g mask="url(#mask0_69_378)">
<path d="M9.99996 52.6667C7.94574 52.6667 6.20996 51.9538 4.79263 50.528C3.37529 49.1018 2.66663 47.3702 2.66663 45.3333V27.3333C2.66663 26.2333 3.0584 25.2916 3.84196 24.508C4.62507 23.7249 5.56663 23.3333 6.66663 23.3333H22V12C22 11.4333 22.1917 10.9582 22.5753 10.5747C22.9584 10.1916 23.4333 10 24 10H35.8C37.8 10 39.5111 10.7129 40.9333 12.1387C42.3555 13.5649 43.0666 15.2964 43.0666 17.3333V29.3333H47.1333V25.3333C47.1333 24.8093 47.2355 24.3018 47.44 23.8107C47.6448 23.3196 47.9204 22.8938 48.2666 22.5333L51 19.7333C51.4888 19.2444 52.0666 19.0444 52.7333 19.1333C53.4 19.2222 53.8889 19.5778 54.2 20.2L62.4666 35.7333C62.8222 36.4 62.8055 37.0556 62.4166 37.7C62.0277 38.3444 61.4444 38.6667 60.6666 38.6667H51.1333C50.0333 38.6667 49.0917 38.2749 48.3086 37.4913C47.5251 36.7082 47.1333 35.7667 47.1333 34.6667V33.3333H43.0666V39.6667C43.9555 40.3804 44.6333 41.2304 45.1 42.2167C45.5666 43.2029 45.8 44.2418 45.8 45.3333C45.8 47.3702 45.0871 49.1018 43.6613 50.528C42.2351 51.9538 40.5035 52.6667 38.4666 52.6667C36.8222 52.6667 35.3666 52.1778 34.1 51.2C32.8333 50.2222 31.9555 48.9556 31.4666 47.4H17C16.5111 48.9556 15.6333 50.2222 14.3666 51.2C13.1 52.1778 11.6444 52.6667 9.99996 52.6667ZM9.98729 48.6667C10.9122 48.6667 11.7011 48.3484 12.354 47.712C13.0068 47.0751 13.3333 46.2862 13.3333 45.3453C13.3333 44.404 13.0151 43.6111 12.3786 42.9667C11.7417 42.3222 10.9528 42 10.012 42C9.07063 42 8.27774 42.3182 7.63329 42.9547C6.98885 43.5916 6.66663 44.3804 6.66663 45.3213C6.66663 46.2627 6.98885 47.0556 7.63329 47.7C8.27774 48.3444 9.0624 48.6667 9.98729 48.6667ZM38.4546 48.6667C39.396 48.6667 40.1889 48.3484 40.8333 47.712C41.4777 47.0751 41.8 46.2862 41.8 45.3453C41.8 44.404 41.4817 43.6111 40.8453 42.9667C40.2084 42.3222 39.4195 42 38.4786 42C37.5373 42 36.7444 42.3182 36.1 42.9547C35.4555 43.5916 35.1333 44.3804 35.1333 45.3213C35.1333 46.2627 35.4515 47.0556 36.088 47.7C36.7248 48.3444 37.5137 48.6667 38.4546 48.6667ZM22 43.3333V27.3333H6.66663V38.8667C7.15552 38.6 7.68885 38.3889 8.26663 38.2333C8.8444 38.0778 9.42218 38 9.99996 38C11.6444 38 13.1111 38.5 14.4 39.5C15.6888 40.5 16.5555 41.7778 17 43.3333H22ZM26 43.3333H31.4C31.8444 41.7778 32.7222 40.5 34.0333 39.5C35.3444 38.5 36.8222 38 38.4666 38H39.1333V33.3333H26V43.3333ZM57.4 34.6667L51.8 24.4C51.5777 24.5333 51.4111 24.7111 51.3 24.9333C51.1889 25.1556 51.1333 25.4 51.1333 25.6667V34.6667H57.4ZM26 29.3333H39.1333V17.3333C39.1333 16.3889 38.814 15.5971 38.1753 14.958C37.5362 14.3193 36.7444 14 35.8 14H26V29.3333ZM22 43.3333V38V38.8667V27.3333V43.3333Z" fill="#2563EB"/>
</g>
</svg>
