<svg width="64" height="64" viewBox="0 0 64 64" fill="none" xmlns="http://www.w3.org/2000/svg">
<path d="M10.875 2.5V18.75H11.9495C11.925 19.0646 11.9376 19.3608 12 19.625C12.2166 20.5425 13.0573 21.625 14 21.625C14.9427 21.625 15.7834 20.5425 16 19.625C16.0625 19.3608 16.075 19.0646 16.0505 18.75H28.7092C28.367 19.4893 27.8355 20.8113 28 21.625C28.1057 22.1485 28.5162 22.7659 28.9767 22.7659C29.4373 22.7659 29.8476 22.1484 29.9534 21.625C30.1178 20.8113 29.5864 19.4893 29.2441 18.75H42.0116C42.2429 19.6585 43.0713 20.7087 44 20.7087C44.9287 20.7087 45.757 19.6585 45.9885 18.75H53.125V11.75H54.875V22.4988C54.875 22.4988 54.9271 23.819 53.6268 24.39C53.5182 24.4179 49.4196 25.4762 44.9917 26.6591C42.7486 27.2584 40.4496 27.8816 38.594 28.406C36.7384 28.9303 35.4544 29.2913 34.762 29.5947C33.9195 29.964 32.9823 30.4489 32.2093 31.251C31.4363 32.0531 30.875 33.2185 30.875 34.625V47.5H33.125V34.625C33.125 33.7629 33.3875 33.2712 33.8296 32.8122C34.2719 32.3532 34.9414 31.9726 35.6652 31.6553C35.8587 31.5705 37.369 31.0903 39.2057 30.5713C41.0427 30.0525 43.3349 29.4304 45.5723 28.8328C50.047 27.6375 54.3027 26.539 54.3027 26.539L54.3802 26.5187L54.454 26.4877C57.0666 25.3993 57.125 22.4988 57.125 22.4988V9.5H53.125V2.5H10.875ZM13.125 4.75H50.875V10.6716C49.9735 11.176 49.0443 12.5104 48 12.625C45.2675 12.925 42.7467 10.5195 40 10.625C37.8934 10.7059 35.9478 13.4318 34 12.625C32.6227 12.0545 33.4142 9.09625 32 8.625C29.1716 7.68225 26.9738 12.4137 24 12.625C21.8971 12.7745 20.1081 10.625 18 10.625C16.4047 10.625 14.4944 10.7915 13.125 11.6132V4.75ZM18 24.625C18 24.625 15.5156 28.5732 16 30.625C16.2166 31.5425 17.0573 32.625 18 32.625C18.9427 32.625 19.7834 31.5425 20 30.625C20.4844 28.5732 18 24.625 18 24.625ZM29.125 49.75V61.5H34.875V49.75H29.125Z" fill="#2563EB"/>
</svg>
