<svg width="64" height="64" viewBox="0 0 64 64" fill="none" xmlns="http://www.w3.org/2000/svg">
<path d="M58.59 2.68132C58.075 2.67382 57.4825 2.76757 56.8132 2.98595C56.7025 3.0372 47.6457 7.2187 38.5297 11.7767C33.9439 14.0696 29.3591 16.4512 25.9495 18.4183C24.2445 19.4018 22.8304 20.2858 21.8857 20.9762C21.4132 21.3212 21.0575 21.6228 20.8652 21.8224C20.804 21.8862 20.8032 21.9094 20.7877 21.9446C20.8984 24.2123 22.7786 27.5733 24.7846 30.2479C25.2818 30.9095 25.7961 31.5581 26.3269 32.1929L28.3179 30.2021L28.4534 30.1262C28.4534 30.1262 29.4259 29.5762 30.5934 29.1699C31.1774 28.9667 31.815 28.7892 32.4861 28.7492C33.157 28.7092 33.9634 28.8058 34.5786 29.4192C35.1924 30.0317 35.2907 30.8363 35.2524 31.5054C35.2144 32.1748 35.0392 32.8108 34.8382 33.3932C34.4362 34.5582 33.8907 35.5286 33.8907 35.5286L33.8145 35.6656L31.807 37.6731C32.442 38.2038 33.0905 38.718 33.752 39.2152C36.4266 41.2212 39.7875 43.1014 42.0552 43.2119C42.0902 43.1966 42.1136 43.1959 42.1774 43.1344C42.377 42.9423 42.6786 42.5864 43.0236 42.1141C43.7141 41.1694 44.5981 39.7553 45.5816 38.0503C47.5487 34.6407 49.9304 30.0559 52.2232 25.4701C56.7812 16.3541 60.9629 7.29732 61.014 7.18657C61.6046 5.37582 61.2667 4.13482 60.5657 3.43407C60.1239 2.99195 59.4679 2.69345 58.5897 2.68095L58.59 2.68132ZM32.733 30.9919C32.6992 30.9916 32.6614 30.9927 32.6197 30.9951C32.2866 31.0151 31.801 31.1322 31.333 31.2951C30.5027 31.5838 29.8352 31.9401 29.6747 32.0269L24.945 36.7567L27.2431 39.0548L31.9872 34.3106C32.2707 33.7796 32.5127 33.2276 32.711 32.6593C32.8722 32.1931 32.9872 31.7087 33.006 31.3776C33.0187 31.1548 32.9895 31.0541 32.9807 31.0206C32.9529 31.0131 32.8824 30.9927 32.7329 30.9921L32.733 30.9919ZM32.9809 31.0204C32.9971 31.0248 33.003 31.0257 32.9896 31.0124C32.9759 30.9987 32.9765 31.0041 32.9809 31.0204ZM23.3544 38.3476L22.1169 39.5853L24.4146 41.8831L25.6521 40.6456L23.3544 38.3477V38.3476ZM18.9589 39.6092L5.80836 51.5608L12.4392 58.1917L24.3909 45.0411L18.9589 39.6092ZM4.14149 53.0759L2.93336 54.1737C2.78174 54.3266 2.71836 54.4674 2.70024 54.7412C2.68174 55.0174 2.74674 55.4202 2.92599 55.8864C3.28474 56.8189 4.08561 57.9698 5.05786 58.9421C6.03011 59.9143 7.18099 60.7152 8.11349 61.0739C8.57974 61.2532 8.98224 61.3182 9.25874 61.2997C9.53249 61.2814 9.67336 61.2182 9.82624 61.0666L10.9241 59.8586L4.14136 53.0757L4.14149 53.0759Z" fill="#2563EB"/>
</svg>
