<svg width="64" height="64" viewBox="0 0 64 64" fill="none" xmlns="http://www.w3.org/2000/svg">
<path d="M21.552 5.12771C16.6182 5.17159 11.7085 5.87421 7.21049 6.98109C8.47224 8.88909 10.6067 10.3498 13.0727 11.3392C16.029 12.5252 19.4127 13.0058 21.9426 12.8766C24.5459 12.7435 27.9132 11.6861 30.5381 10.2506C31.8506 9.53284 32.9809 8.71996 33.7446 7.93809C34.1496 7.52346 34.4342 7.12734 34.6184 6.77359C30.7591 5.67634 26.6564 5.16546 22.539 5.12771C22.21 5.12475 21.881 5.12475 21.552 5.12771ZM35.4946 9.36234C35.4481 9.41184 35.4017 9.46146 35.354 9.51034C34.368 10.5197 33.0751 11.4278 31.6179 12.2247C28.7036 13.8185 25.1464 14.9657 22.0574 15.1236C19.154 15.2721 15.5376 14.7527 12.2349 13.4276C9.97312 12.5201 7.83624 11.2212 6.26462 9.44346C4.22524 25.8576 2.41562 44.1462 4.99899 59.1266C7.44874 59.897 10.123 60.4797 12.875 60.8703V52.8751H20.875V44.8751H34.6196C34.6166 44.4985 34.6386 44.0882 34.6804 43.6288C34.8004 42.3106 35.0825 40.6266 35.4726 38.753C36.1486 35.5071 37.1491 31.7132 38.2161 28.484C37.5974 22.3423 36.6995 15.8745 35.4946 9.36234ZM54.5799 9.43609C54.4662 9.43634 54.3386 9.44946 54.2211 9.45321L47.1025 18.3632C48.064 18.6721 48.9272 19.2866 49.5574 20.1197L56.4659 11.8641C56.5785 11.6066 56.5827 10.8875 56.1941 10.3275C55.89 9.88934 55.4482 9.52171 54.6877 9.44096C54.6538 9.43755 54.6179 9.43592 54.5799 9.43609ZM45.8916 20.4038C45.6789 20.6614 45.4992 20.9447 45.3569 21.247C44.8756 22.2795 44.7919 23.3807 44.8799 24.3232L44.8826 24.3512L45.321 27.4022C45.0932 27.4235 44.8657 27.4479 44.6385 27.4755C43.2449 27.6457 41.7145 27.9611 40.6629 28.3006C39.5224 31.5893 38.3974 35.7446 37.6754 39.2118C37.2961 41.0321 37.0276 42.6627 36.9211 43.8326C36.8876 44.2007 36.8976 44.4147 36.8957 44.6737C37.188 44.5232 37.5267 44.3323 37.9365 44.0648C39.1457 43.2752 40.7492 42.0373 42.4527 40.6192C45.6446 37.9618 49.166 34.6943 51.4524 32.3922C51.0796 31.4392 50.4257 30.3618 49.7085 29.4527C48.8732 28.3941 47.8972 27.5597 47.6422 27.4017C47.6351 27.4027 47.6095 27.3985 47.5932 27.3967L47.1204 24.1063C47.0644 23.4926 47.15 22.7258 47.3962 22.1976C47.5181 21.9361 47.6477 21.7317 47.8287 21.5787C47.3479 20.906 46.6131 20.467 45.8916 20.4038ZM47.125 39.1251V44.8751H60.875V39.1251H47.125ZM23.125 47.1251V52.8751H36.875V47.1251H23.125ZM39.125 47.1251V52.8751H52.875V47.1251H39.125ZM55.125 47.1251V52.8751H60.875V47.1251H55.125ZM15.125 55.1251V60.8751H28.875V55.1251H15.125ZM31.125 55.1251V60.8751H44.875V55.1251H31.125ZM47.125 55.1251V60.8751H60.875V55.1251H47.125Z" fill="#2563EB"/>
</svg>
