<svg width="64" height="64" viewBox="0 0 64 64" fill="none" xmlns="http://www.w3.org/2000/svg">
<path d="M6.93335 27.7334C5.87956 28.8013 5.29316 30.2441 5.30317 31.7444C5.31317 33.2447 5.91875 34.6796 6.98669 35.7334C8.05462 36.7872 9.49744 37.3736 10.9977 37.3636C12.498 37.3536 13.9329 36.748 14.9867 35.68L32 18.6667L49.0667 35.7334C49.5957 36.255 50.2222 36.6673 50.9105 36.9468C51.5988 37.2263 52.3354 37.3674 53.0783 37.3622C53.8212 37.357 54.5557 37.2056 55.2401 36.9165C55.9244 36.6274 56.5451 36.2063 57.0667 35.6774C57.5883 35.1484 58.0006 34.5219 58.2801 33.8336C58.5596 33.1453 58.7007 32.4086 58.6955 31.6658C58.6903 30.9229 58.5389 30.1883 58.2498 29.504C57.9607 28.8197 57.5397 28.199 57.0107 27.6774L36.5334 7.20004C35.9379 6.60248 35.2301 6.12855 34.4508 5.80549C33.6715 5.48244 32.8361 5.31664 31.9925 5.31763C31.1489 5.31862 30.3138 5.48638 29.5352 5.81127C28.7567 6.13615 28.0501 6.61175 27.456 7.2107L6.93335 27.7334Z" stroke="#2563EB" stroke-width="4" stroke-linecap="round" stroke-linejoin="round"/>
<path d="M53.3334 37.3333V53.3333C53.3334 54.7477 52.7715 56.1043 51.7713 57.1045C50.7711 58.1047 49.4145 58.6666 48 58.6666H16C14.5855 58.6666 13.229 58.1047 12.2288 57.1045C11.2286 56.1043 10.6667 54.7477 10.6667 53.3333V37.3333" stroke="#2563EB" stroke-width="4" stroke-linecap="round" stroke-linejoin="round"/>
<path d="M37.3334 58.6666V42.6666C37.3334 41.2521 36.7714 39.8955 35.7713 38.8954C34.7711 37.8952 33.4145 37.3333 32 37.3333C30.5855 37.3333 29.229 37.8952 28.2288 38.8954C27.2286 39.8955 26.6667 41.2521 26.6667 42.6666V58.6666" stroke="#2563EB" stroke-width="4" stroke-linecap="round" stroke-linejoin="round"/>
</svg>
