<svg width="64" height="64" viewBox="0 0 64 64" fill="none" xmlns="http://www.w3.org/2000/svg">
<path d="M33.3333 18.6666C33.3333 15.7066 35.7067 13.3333 38.6667 13.3333H48C50.9333 13.3333 53.3333 15.7333 53.3333 18.6666V24.4266C50.24 25.5199 48 28.4533 48 31.9199V37.3333H33.3333V18.6666ZM16 31.8933V37.3333H30.6667V18.6666C30.6667 15.7066 28.2933 13.3333 25.3333 13.3333H16C13.0667 13.3333 10.6667 15.7333 10.6667 18.6666V24.3999C13.76 25.4933 16 28.4533 16 31.8933ZM55.0933 26.7466C52.48 27.1733 50.6667 29.6533 50.6667 32.3199V39.9999H13.3333V31.9999C13.3333 30.5854 12.7714 29.2289 11.7712 28.2287C10.771 27.2285 9.41448 26.6666 7.99999 26.6666C6.5855 26.6666 5.22895 27.2285 4.22875 28.2287C3.22856 29.2289 2.66666 30.5854 2.66666 31.9999V45.3333C2.66666 48.2666 5.06666 50.6666 7.99999 50.6666V55.9999H13.3333V50.6666H50.6667V55.9999H56V50.6666C58.9333 50.6666 61.3333 48.2666 61.3333 45.3333V31.9999C61.3333 28.7733 58.4267 26.1866 55.0933 26.7466Z" fill="#2563EB"/>
</svg>
