<svg width="64" height="64" viewBox="0 0 64 64" fill="none" xmlns="http://www.w3.org/2000/svg">
<path d="M44.5867 27.8133C39.1467 22.3733 38.6667 12.4266 38.6667 10.6666H34.6667V15.9999H24V10.6666H18.6667C18.6667 7.73325 21.0667 5.33325 24 5.33325H42.6667V7.99992C42.6667 8.21325 42.7734 20.3466 47.4134 24.9866L44.5867 27.8133ZM45.3334 5.33325V10.6666H48V5.33325H45.3334ZM40 31.9999C34.6667 26.6666 34.6667 18.6666 34.6667 18.6666H24V23.9999C24 26.6666 24 26.6666 21.3334 29.3333C18.6667 31.9999 18.6667 34.6666 18.6667 34.6666V53.3333C18.6667 56.2666 21.0667 58.6666 24 58.6666H34.6667C37.6 58.6666 40 56.2666 40 53.3333V31.9999Z" fill="#2563EB"/>
</svg>
