<svg width="64" height="64" viewBox="0 0 64 64" fill="none" xmlns="http://www.w3.org/2000/svg">
<path d="M10 15.0773C10 12.296 12.296 10 15.0773 10H48.9227C51.704 10 54 12.296 54 15.0773V30.464C53.9916 31.8078 53.4539 33.094 52.5034 34.044C51.553 34.9939 50.2664 35.531 48.9227 35.5387H15.0773C13.7331 35.531 12.4461 34.9936 11.4956 34.043C10.5451 33.0925 10.0077 31.8056 10 30.4613V15.0773ZM42.3067 31.5387V27.384C42.2986 27.1008 42.1825 26.8315 41.9822 26.6311C41.7819 26.4308 41.5125 26.3147 41.2293 26.3067H22.7707C22.488 26.3154 22.2193 26.4318 22.0195 26.632C21.8197 26.8323 21.704 27.1013 21.696 27.384V31.5387H42.3067ZM22.768 39.2267C23.2984 39.2267 23.8071 39.4374 24.1822 39.8125C24.5573 40.1875 24.768 40.6962 24.768 41.2267C24.768 42.8933 24.7307 45.2 23.9547 47.1067C23.539 48.194 22.8187 49.1383 21.88 49.8267C20.8453 50.5653 19.5867 50.92 18.1547 50.92C17.6242 50.92 17.1155 50.7093 16.7405 50.3342C16.3654 49.9591 16.1547 49.4504 16.1547 48.92C16.1547 48.3896 16.3654 47.8809 16.7405 47.5058C17.1155 47.1307 17.6242 46.92 18.1547 46.92C18.9093 46.92 19.32 46.7413 19.56 46.5707C19.8107 46.392 20.048 46.0987 20.248 45.6027C20.688 44.52 20.768 42.9787 20.768 41.2293C20.768 40.6989 20.9787 40.1902 21.3538 39.8151C21.7289 39.44 22.2376 39.2293 22.768 39.2293M32 39.2293C32.5304 39.2293 33.0391 39.44 33.4142 39.8151C33.7893 40.1902 34 40.6989 34 41.2293V52C34 52.5304 33.7893 53.0391 33.4142 53.4142C33.0391 53.7893 32.5304 54 32 54C31.4696 54 30.9609 53.7893 30.5858 53.4142C30.2107 53.0391 30 52.5304 30 52V41.2293C30 40.6989 30.2107 40.1902 30.5858 39.8151C30.9609 39.44 31.4696 39.2293 32 39.2293ZM41.2293 39.2293C41.7598 39.2293 42.2685 39.44 42.6435 39.8151C43.0186 40.1902 43.2293 40.6989 43.2293 41.2293C43.2293 42.9813 43.3093 44.5227 43.752 45.6053C43.952 46.1013 44.1893 46.3947 44.44 46.5733C44.68 46.744 45.0907 46.9227 45.8453 46.9227C46.3758 46.9227 46.8845 47.1334 47.2595 47.5085C47.6346 47.8835 47.8453 48.3922 47.8453 48.9227C47.8453 49.4531 47.6346 49.9618 47.2595 50.3369C46.8845 50.712 46.3758 50.9227 45.8453 50.9227C44.4133 50.9227 43.152 50.568 42.12 49.8293C41.1813 49.141 40.461 48.1966 40.0453 47.1093C39.272 45.2027 39.2293 42.896 39.2293 41.2293C39.2293 40.6989 39.44 40.1902 39.8151 39.8151C40.1902 39.44 40.6989 39.2293 41.2293 39.2293Z" fill="#2563EB"/>
</svg>
