<svg width="64" height="64" viewBox="0 0 64 64" fill="none" xmlns="http://www.w3.org/2000/svg">
<path d="M26.5947 47.9999H37.4053C37.7573 44.7946 39.392 42.1519 42.0453 39.2613C42.3467 38.9359 44.264 36.9493 44.4907 36.6666C46.3741 34.3136 47.5546 31.4765 47.8963 28.482C48.238 25.4875 47.7269 22.4574 46.422 19.7406C45.117 17.0238 43.0713 14.7308 40.5203 13.1257C37.9693 11.5207 35.0168 10.6687 32.0029 10.6681C28.9889 10.6675 26.0361 11.5181 23.4844 13.1221C20.9327 14.7261 18.886 17.0182 17.5799 19.7344C16.2738 22.4506 15.7614 25.4806 16.1018 28.4752C16.4423 31.4699 17.6216 34.3075 19.504 36.6613C19.7333 36.9466 21.656 38.9359 21.952 39.2586C24.608 42.1493 26.2427 44.7946 26.5947 47.9999ZM37.3333 53.3333H26.6667V55.9999H37.3333V53.3333ZM15.344 39.9999C12.8325 36.862 11.2585 33.0785 10.8034 29.0852C10.3482 25.0918 11.0304 21.0512 12.7713 17.4286C14.5123 13.806 17.2412 10.7489 20.6436 8.60949C24.0461 6.47005 27.9837 5.33529 32.0029 5.33594C36.0221 5.33658 39.9593 6.4726 43.3611 8.61313C46.7629 10.7537 49.4908 13.8116 51.2305 17.4347C52.9703 21.0579 53.6512 25.0988 53.1948 29.092C52.7383 33.0852 51.1632 36.8682 48.6507 40.0053C46.9973 42.0639 42.6667 45.3333 42.6667 49.3333V55.9999C42.6667 57.4144 42.1048 58.771 41.1046 59.7712C40.1044 60.7714 38.7478 61.3333 37.3333 61.3333H26.6667C25.2522 61.3333 23.8956 60.7714 22.8954 59.7712C21.8952 58.771 21.3333 57.4144 21.3333 55.9999V49.3333C21.3333 45.3333 17 42.0639 15.344 39.9999ZM34.6667 26.6773H41.3333L29.3333 42.6773V32.0106H22.6667L34.6667 15.9999V26.6773Z" fill="#2563EB"/>
</svg>
