<svg width="64" height="64" viewBox="0 0 64 64" fill="none" xmlns="http://www.w3.org/2000/svg">
<path d="M42.6667 13.3333L50.6667 21.3333L45.3333 23.9999L56 34.6666L48 37.3333L58.6667 47.9999H34.6667M40 55.9999V47.9999M21.3333 34.6666L16 29.3333M21.3333 31.9999L26.6667 26.6666M21.3333 55.9999V21.3333M15.5307 42.6666C14.3639 42.5983 13.2263 42.2752 12.1979 41.72C11.1694 41.1647 10.2751 40.3909 9.57787 39.453C8.88062 38.515 8.39735 37.4356 8.16207 36.2908C7.92678 35.146 7.94519 33.9635 8.216 32.8266C7.24926 32.0215 6.48601 30.9998 5.98824 29.8444C5.49048 28.689 5.27222 27.4325 5.3512 26.1769C5.43018 24.9213 5.80416 23.7021 6.44278 22.6181C7.08141 21.5342 7.96666 20.6162 9.02666 19.9386C8.09699 18.287 7.78387 16.359 8.14309 14.4981C8.50232 12.6372 9.51056 10.9642 10.9882 9.77736C12.4658 8.59047 14.3168 7.96672 16.2114 8.01725C18.106 8.06778 19.9211 8.78931 21.3333 10.0533C22.7459 8.79131 24.5604 8.07149 26.4539 8.02194C28.3475 7.97239 30.1972 8.59632 31.6738 9.78268C33.1504 10.969 34.1582 12.6409 34.5178 14.5006C34.8773 16.3603 34.5653 18.2873 33.6373 19.9386C34.6975 20.616 35.583 21.5338 36.2218 22.6176C36.8607 23.7014 37.235 24.9206 37.3142 26.1762C37.3934 27.4318 37.1754 28.6884 36.6779 29.8439C36.1803 30.9994 35.4173 32.0213 34.4507 32.8266C34.7306 34.0021 34.7406 35.2256 34.48 36.4055C34.2194 37.5854 33.6948 38.6909 32.9458 39.6391C32.1968 40.5872 31.2427 41.3534 30.1552 41.8801C29.0677 42.4067 27.875 42.6802 26.6667 42.6799H16L15.5307 42.6666Z" stroke="#2563EB" stroke-width="5.33333" stroke-linecap="round" stroke-linejoin="round"/>
</svg>
